<svg width="14" height="14" viewBox="0 0 14 14" fill="none" xmlns="http://www.w3.org/2000/svg">
<path d="M0.798 0.462L0.364 0.91L0.938 1.4C1.88067 2.184 2.954 2.78133 4.158 3.192C4.61533 3.35067 5.012 3.45333 5.348 3.5C5.712 3.556 6.23933 3.58867 6.93 3.598C7.41533 3.598 7.87267 3.58867 8.302 3.57C8.75 3.55133 9.05333 3.52333 9.212 3.486C9.33333 3.458 9.40333 3.46267 9.422 3.5C9.44067 3.53733 9.387 3.63533 9.261 3.794C9.135 3.95267 8.90867 4.20933 8.582 4.564C8.26467 4.89067 7.798 5.36667 7.182 5.992L4.9 8.288L0 13.188L0.392 13.608L0.812 14L5.712 9.1L8.008 6.818C8.63333 6.202 9.10933 5.73533 9.436 5.418C9.79067 5.09133 10.0473 4.865 10.206 4.739C10.3647 4.613 10.4627 4.55933 10.5 4.578C10.5373 4.59667 10.542 4.66667 10.514 4.788C10.4767 4.94667 10.4487 5.25 10.43 5.698C10.4113 6.12733 10.402 6.58467 10.402 7.07C10.4113 7.76067 10.444 8.288 10.5 8.652C10.5467 8.988 10.6493 9.38467 10.808 9.842C11.2187 11.046 11.816 12.1193 12.6 13.062L13.09 13.636L13.538 13.202L14 12.768L13.65 12.39C13.4633 12.2127 13.1647 11.7927 12.754 11.13C12.1567 10.1407 11.7833 9.07667 11.634 7.938C11.4847 6.80867 11.5617 5.691 11.865 4.585C12.1683 3.479 12.684 2.464 13.412 1.54L13.986 0.811999L13.608 0.405999L13.216 0.0139999L12.838 0.308C12.4087 0.634666 11.9467 0.949666 11.452 1.253C10.9573 1.55633 10.5467 1.77333 10.22 1.904C9.716 2.1 9.07433 2.25167 8.295 2.359C7.51567 2.46633 6.874 2.48733 6.37 2.422C5.502 2.31933 4.62233 2.07433 3.731 1.687C2.83967 1.29967 2.13267 0.853999 1.61 0.349999L1.232 0L0.798 0.462Z" fill="#404A3D"/>
</svg>
