<svg width="15" height="16" viewBox="0 0 15 16" fill="none" xmlns="http://www.w3.org/2000/svg">
<path d="M3.834 0.0206194C3.606 0.0806198 3.417 0.19462 3.267 0.362619C3.117 0.53062 3.024 0.72862 2.988 0.95662L2.97 1.11862H2.304C1.932 1.11862 1.662 1.13362 1.494 1.16362C1.326 1.19362 1.152 1.25662 0.972 1.35262C0.768 1.46062 0.585 1.60762 0.423 1.79362C0.261 1.97962 0.144 2.18062 0.072 2.39662C0.048 2.48062 0.03 2.61862 0.018 2.81062C0.006 3.05062 0 3.58462 0 4.41262V12.4586C0 13.2746 0.006 13.8086 0.018 14.0606C0.03 14.2526 0.048 14.3846 0.072 14.4566C0.144 14.6726 0.261 14.8766 0.423 15.0686C0.585 15.2606 0.768 15.4106 0.972 15.5186L1.044 15.5546C1.152 15.6146 1.254 15.6506 1.35 15.6626C1.494 15.6986 1.752 15.7196 2.124 15.7256C2.496 15.7316 3.108 15.7346 3.96 15.7346H13.464L13.698 15.6446C13.974 15.5486 14.217 15.3926 14.427 15.1766C14.637 14.9606 14.784 14.7206 14.868 14.4566C14.892 14.3846 14.91 14.2526 14.922 14.0606C14.934 13.8086 14.94 13.2746 14.94 12.4586V4.41262C14.94 3.58462 14.934 3.05062 14.922 2.81062C14.91 2.61862 14.892 2.48062 14.868 2.39662C14.784 2.13262 14.637 1.89262 14.427 1.67662C14.217 1.46062 13.974 1.30462 13.698 1.20862C13.578 1.18462 13.47 1.16662 13.374 1.15462C13.254 1.14262 13.038 1.13062 12.726 1.11862H11.97L11.952 0.95662C11.928 0.848619 11.883 0.72262 11.817 0.57862C11.751 0.43462 11.688 0.33862 11.628 0.29062C11.568 0.24262 11.466 0.18262 11.322 0.11062C11.25 0.0626202 11.19 0.0356197 11.142 0.0296202C11.094 0.0236197 10.998 0.0206194 10.854 0.0206194C10.71 0.0206194 10.611 0.0236197 10.557 0.0296202C10.503 0.0356197 10.44 0.0566196 10.368 0.0926199C10.2 0.17662 10.059 0.296619 9.945 0.45262C9.831 0.60862 9.762 0.77662 9.738 0.95662L9.72 1.11862H5.22L5.202 0.95662C5.142 0.58462 4.95 0.308619 4.626 0.12862C4.506 0.0686197 4.371 0.0296202 4.221 0.0116196C4.071 -0.00638008 3.942 -0.00337982 3.834 0.0206194ZM4.248 0.79462C4.344 0.83062 4.407 0.89662 4.437 0.99262C4.467 1.08862 4.482 1.25062 4.482 1.47862C4.482 1.74262 4.464 1.92262 4.428 2.01862C4.404 2.07862 4.359 2.12962 4.293 2.17162C4.227 2.21362 4.161 2.23462 4.095 2.23462C4.029 2.23462 3.963 2.21362 3.897 2.17162C3.831 2.12962 3.786 2.07862 3.762 2.01862C3.726 1.92262 3.708 1.74262 3.708 1.47862C3.708 1.25062 3.723 1.08862 3.753 0.99262C3.783 0.89662 3.837 0.83062 3.915 0.79462C3.993 0.758619 4.05 0.74062 4.086 0.74062C4.122 0.74062 4.176 0.758619 4.248 0.79462ZM10.998 0.79462C11.094 0.83062 11.157 0.89662 11.187 0.99262C11.217 1.08862 11.232 1.25062 11.232 1.47862C11.232 1.74262 11.214 1.92262 11.178 2.01862C11.154 2.07862 11.109 2.12962 11.043 2.17162C10.977 2.21362 10.911 2.23462 10.845 2.23462C10.779 2.23462 10.713 2.21362 10.647 2.17162C10.581 2.12962 10.536 2.07862 10.512 2.01862C10.476 1.92262 10.458 1.74262 10.458 1.47862C10.458 1.25062 10.473 1.08862 10.503 0.99262C10.533 0.89662 10.587 0.83062 10.665 0.79462C10.743 0.758619 10.8 0.74062 10.836 0.74062C10.872 0.74062 10.926 0.758619 10.998 0.79462ZM2.988 2.01862C3.012 2.19862 3.078 2.36662 3.186 2.52262C3.294 2.67862 3.438 2.79862 3.618 2.88262C3.678 2.91862 3.735 2.93962 3.789 2.94562C3.843 2.95162 3.945 2.95462 4.095 2.95462C4.245 2.95462 4.347 2.95162 4.401 2.94562C4.455 2.93962 4.518 2.91862 4.59 2.88262C4.758 2.78662 4.899 2.66362 5.013 2.51362C5.127 2.36362 5.19 2.19862 5.202 2.01862L5.238 1.85662H9.702L9.738 2.01862C9.762 2.19862 9.828 2.36662 9.936 2.52262C10.044 2.67862 10.188 2.79862 10.368 2.88262C10.476 2.93062 10.635 2.95462 10.845 2.95462C11.055 2.95462 11.22 2.93062 11.34 2.88262C11.508 2.78662 11.649 2.66362 11.763 2.51362C11.877 2.36362 11.94 2.19862 11.952 2.01862L11.988 1.85662H12.654C13.098 1.86862 13.377 1.89862 13.491 1.94662C13.605 1.99462 13.725 2.07562 13.851 2.18962C13.977 2.30362 14.064 2.40862 14.112 2.50462C14.16 2.60062 14.187 2.69662 14.193 2.79262C14.199 2.88862 14.208 3.14662 14.22 3.56662V4.48462H0.72V3.56662C0.732 3.15862 0.741 2.90362 0.747 2.80162C0.753 2.69962 0.78 2.61262 0.828 2.54062C0.9 2.36062 1.05 2.18662 1.278 2.01862C1.374 1.95862 1.5 1.91662 1.656 1.89262C1.812 1.86862 2.046 1.85662 2.358 1.85662H2.952L2.988 2.01862ZM14.22 9.68662L14.202 14.1506L14.112 14.3306C14.064 14.4506 13.977 14.5676 13.851 14.6816C13.725 14.7956 13.608 14.8706 13.5 14.9066C13.392 14.9426 13.056 14.9666 12.492 14.9786C11.76 14.9906 10.089 14.9966 7.479 14.9966C4.869 14.9966 3.192 14.9906 2.448 14.9786C1.884 14.9666 1.548 14.9426 1.44 14.9066C1.332 14.8706 1.215 14.7956 1.089 14.6816C0.963 14.5676 0.876 14.4506 0.828 14.3306L0.738 14.1506L0.72 9.68662V5.22262H14.22V9.68662ZM2.682 6.80662C2.514 6.86662 2.388 6.98662 2.304 7.16662C2.268 7.22662 2.247 7.30162 2.241 7.39162C2.235 7.48162 2.232 7.71862 2.232 8.10262L2.25 8.87662L2.358 9.03862C2.418 9.12262 2.508 9.20062 2.628 9.27262C2.7 9.32062 2.775 9.34762 2.853 9.35362C2.931 9.35962 3.159 9.36262 3.537 9.36262C3.915 9.36262 4.14 9.35962 4.212 9.35362C4.284 9.34762 4.356 9.32362 4.428 9.28162C4.5 9.23962 4.596 9.15862 4.716 9.03862L4.824 8.87662V8.13862C4.836 7.73062 4.833 7.46362 4.815 7.33762C4.797 7.21162 4.74 7.09462 4.644 6.98662C4.548 6.87862 4.437 6.80962 4.311 6.77962C4.185 6.74962 3.924 6.74062 3.528 6.75262H2.934C2.814 6.76462 2.73 6.78262 2.682 6.80662ZM4.104 8.04862V8.60662H2.97V7.47262H4.104V8.04862ZM6.624 6.80662C6.468 6.85462 6.336 6.97462 6.228 7.16662C6.204 7.22662 6.189 7.30162 6.183 7.39162C6.177 7.48162 6.174 7.71862 6.174 8.10262L6.192 8.87662L6.3 9.03862C6.348 9.11062 6.432 9.18862 6.552 9.27262C6.636 9.32062 6.717 9.34762 6.795 9.35362C6.873 9.35962 7.098 9.36262 7.47 9.36262C7.842 9.36262 8.067 9.35962 8.145 9.35362C8.223 9.34762 8.307 9.31762 8.397 9.26362C8.487 9.20962 8.568 9.13462 8.64 9.03862L8.748 8.87662L8.766 8.13862C8.778 7.73062 8.775 7.46362 8.757 7.33762C8.739 7.21162 8.682 7.09462 8.586 6.98662C8.49 6.87862 8.379 6.80962 8.253 6.77962C8.127 6.74962 7.866 6.74062 7.47 6.75262H6.876C6.744 6.76462 6.66 6.78262 6.624 6.80662ZM8.028 8.04862V8.60662H6.912V7.47262H8.028V8.04862ZM10.566 6.80662C10.41 6.85462 10.278 6.97462 10.17 7.16662C10.146 7.23862 10.128 7.31662 10.116 7.40062C10.104 7.52062 10.104 7.75462 10.116 8.10262L10.134 8.87662L10.224 9.03862C10.344 9.15862 10.44 9.23962 10.512 9.28162C10.584 9.32362 10.659 9.34762 10.737 9.35362C10.815 9.35962 11.04 9.36262 11.412 9.36262C11.784 9.36262 12.009 9.35962 12.087 9.35362C12.165 9.34762 12.246 9.32062 12.33 9.27262C12.45 9.18862 12.534 9.11062 12.582 9.03862L12.69 8.87662L12.708 8.13862C12.708 7.73062 12.699 7.46362 12.681 7.33762C12.663 7.21162 12.612 7.10062 12.528 7.00462C12.42 6.88462 12.306 6.80962 12.186 6.77962C12.066 6.74962 11.808 6.74062 11.412 6.75262H10.8C10.692 6.76462 10.614 6.78262 10.566 6.80662ZM11.97 8.04862V8.60662H10.854V7.47262H11.97V8.04862ZM2.79 10.8926C2.55 10.9646 2.382 11.1086 2.286 11.3246C2.25 11.4326 2.232 11.7206 2.232 12.1886C2.232 12.5966 2.244 12.8576 2.268 12.9716C2.292 13.0856 2.355 13.1876 2.457 13.2776C2.559 13.3676 2.67 13.4246 2.79 13.4486C2.91 13.4726 3.165 13.4846 3.555 13.4846C3.945 13.4846 4.2 13.4726 4.32 13.4486C4.44 13.4246 4.548 13.3586 4.644 13.2506C4.74 13.1426 4.797 13.0256 4.815 12.8996C4.833 12.7736 4.836 12.5066 4.824 12.0986V11.3606L4.716 11.1986C4.644 11.1026 4.554 11.0246 4.446 10.9646C4.374 10.9166 4.299 10.8896 4.221 10.8836C4.143 10.8776 3.93 10.8746 3.582 10.8746C3.402 10.8626 3.234 10.8596 3.078 10.8656C2.922 10.8716 2.826 10.8806 2.79 10.8926ZM4.104 12.1886V12.7466H2.97V11.6306H4.104V12.1886ZM6.732 10.8926C6.492 10.9646 6.324 11.1086 6.228 11.3246C6.204 11.3726 6.186 11.4566 6.174 11.5766V12.1886C6.174 12.5966 6.186 12.8576 6.21 12.9716C6.234 13.0856 6.297 13.1906 6.399 13.2866C6.501 13.3826 6.609 13.4396 6.723 13.4576C6.837 13.4756 7.092 13.4846 7.488 13.4846C7.884 13.4846 8.142 13.4726 8.262 13.4486C8.382 13.4246 8.49 13.3586 8.586 13.2506C8.682 13.1426 8.739 13.0256 8.757 12.8996C8.775 12.7736 8.778 12.5066 8.766 12.0986L8.748 11.3606L8.64 11.1986C8.592 11.1146 8.508 11.0366 8.388 10.9646C8.304 10.9166 8.226 10.8896 8.154 10.8836C8.082 10.8776 7.872 10.8746 7.524 10.8746C7.344 10.8626 7.176 10.8596 7.02 10.8656C6.864 10.8716 6.768 10.8806 6.732 10.8926ZM8.028 12.1886V12.7466H6.912V11.6306H8.028V12.1886ZM10.674 10.8926C10.434 10.9646 10.26 11.1086 10.152 11.3246C10.14 11.3726 10.128 11.4566 10.116 11.5766V12.1886C10.116 12.5966 10.128 12.8576 10.152 12.9716C10.176 13.0856 10.236 13.1876 10.332 13.2776C10.428 13.3676 10.536 13.4246 10.656 13.4486C10.776 13.4726 11.034 13.4846 11.43 13.4846C11.826 13.4846 12.081 13.4726 12.195 13.4486C12.309 13.4246 12.42 13.3526 12.528 13.2326C12.612 13.1366 12.663 13.0256 12.681 12.8996C12.699 12.7736 12.708 12.5066 12.708 12.0986L12.69 11.3606L12.582 11.1986C12.546 11.1386 12.468 11.0666 12.348 10.9826L12.33 10.9646C12.246 10.9166 12.165 10.8896 12.087 10.8836C12.009 10.8776 11.802 10.8746 11.466 10.8746C11.286 10.8626 11.118 10.8596 10.962 10.8656C10.806 10.8716 10.71 10.8806 10.674 10.8926ZM11.97 12.1886V12.7466H10.854V11.6306H11.97V12.1886Z" fill="#5B8C51"/>
</svg>
