<svg width="55" height="55" viewBox="0 0 55 55" fill="none" xmlns="http://www.w3.org/2000/svg">
<path d="M7.69989 46.1999H3.66655C3.05544 46.1999 2.536 45.986 2.10822 45.5582C1.68044 45.1305 1.46655 44.611 1.46655 43.9999V27.1332C1.46655 26.5221 1.68044 26.0027 2.10822 25.5749C2.536 25.1471 3.05544 24.9332 3.66655 24.9332H7.69989C8.311 24.9332 8.83044 25.1471 9.25822 25.5749C9.686 26.0027 9.89989 26.5221 9.89989 27.1332V43.9999C9.89989 44.611 9.686 45.1305 9.25822 45.5582C8.83044 45.986 8.311 46.1999 7.69989 46.1999ZM3.66655 26.3999C3.54433 26.3999 3.39155 26.461 3.20822 26.5832C3.02489 26.7055 2.93322 26.8888 2.93322 27.1332V43.9999C2.93322 44.2443 3.02489 44.4277 3.20822 44.5499C3.39155 44.6721 3.54433 44.7332 3.66655 44.7332H7.69989C7.82211 44.7332 7.97489 44.6721 8.15822 44.5499C8.34155 44.4277 8.43322 44.2443 8.43322 43.9999V27.1332C8.43322 26.8888 8.34155 26.7055 8.15822 26.5832C7.97489 26.461 7.82211 26.3999 7.69989 26.3999H3.66655ZM33.5499 38.8666H20.5332C20.2888 38.8666 20.1054 38.7443 19.9832 38.4999C19.861 38.2555 19.861 38.011 19.9832 37.7666C20.1054 37.5221 20.2888 37.3999 20.5332 37.3999H33.5499C34.0388 37.3999 34.4971 37.186 34.9249 36.7582C35.3527 36.3305 35.5666 35.8416 35.5666 35.2916C35.5666 34.7416 35.3527 34.2832 34.9249 33.9166C34.4971 33.5499 34.0388 33.3666 33.5499 33.3666H28.9666C27.2554 33.3666 25.8499 32.7249 24.7499 31.4416C23.6499 30.1582 22.3054 29.5166 20.7166 29.5166H9.16655C8.92211 29.5166 8.73878 29.4555 8.61655 29.3332C8.49433 29.211 8.43322 29.0277 8.43322 28.7832C8.43322 28.5388 8.49433 28.3555 8.61655 28.2332C8.73878 28.111 8.92211 28.0499 9.16655 28.0499H20.7166C22.7943 28.0499 24.5054 28.8443 25.8499 30.4332C26.5832 31.2888 27.6221 31.7166 28.9666 31.7166H33.5499C34.5277 31.7166 35.3527 32.0832 36.0249 32.8166C36.6971 33.5499 37.0332 34.4055 37.0332 35.3832C37.0332 36.361 36.6971 37.186 36.0249 37.8582C35.3527 38.5305 34.5277 38.8666 33.5499 38.8666ZM27.3166 48.3999C25.4832 48.3999 23.711 48.0943 21.9999 47.4832L8.79989 42.7166C8.67766 42.5943 8.586 42.4416 8.52489 42.2582C8.46378 42.0749 8.46378 41.8916 8.52489 41.7082C8.586 41.5249 8.70822 41.3721 8.89155 41.2499C9.07489 41.1277 9.22766 41.1277 9.34989 41.2499L22.5499 46.0166C24.3832 46.7499 26.2471 47.0555 28.1416 46.9332C30.036 46.811 31.8999 46.3221 33.7332 45.4666L51.8832 35.7499C51.0277 34.8943 50.0193 34.3443 48.8582 34.0999C47.6971 33.8555 46.5666 33.9777 45.4666 34.4666L35.7499 37.9499C35.5054 38.0721 35.261 38.0416 35.0166 37.8582C34.7721 37.6749 34.6804 37.4305 34.7416 37.1249C34.8027 36.8193 34.9554 36.6055 35.1999 36.4832L44.9166 32.9999C46.261 32.511 47.6666 32.4193 49.1332 32.7249C50.5999 33.0305 51.8832 33.7332 52.9832 34.8332L53.1666 35.0166C53.411 35.261 53.5027 35.5971 53.4416 36.0249C53.3804 36.4527 53.1666 36.7277 52.7999 36.8499L34.2832 46.7499C32.2054 47.8499 29.8832 48.3999 27.3166 48.3999ZM42.1666 35.3832C42.1666 35.3832 42.1054 35.3832 41.9832 35.3832C41.861 35.3832 41.7388 35.2916 41.6166 35.1082C41.4943 34.9249 41.4332 34.711 41.4332 34.4666L41.6166 33.5499C41.6166 31.3499 40.9138 29.4249 39.5082 27.7749C38.1027 26.1249 36.361 25.0555 34.2832 24.5666C32.2054 24.0777 30.1888 24.3221 28.2332 25.2999C26.2777 26.2777 24.8721 27.7443 24.0166 29.6999C23.8943 30.0666 23.711 30.2499 23.4666 30.2499C23.2221 30.2499 23.0082 30.1277 22.8249 29.8832C22.6416 29.6388 22.611 29.3943 22.7332 29.1499C23.711 26.8277 25.3304 25.1166 27.5916 24.0166C29.8527 22.9166 32.2054 22.611 34.6499 23.0999C37.0943 23.5888 39.111 24.811 40.6999 26.7666C42.2888 28.7221 43.0832 30.9832 43.0832 33.5499L42.8999 34.6499C42.8999 34.8943 42.8388 35.0777 42.7166 35.1999C42.5943 35.3221 42.411 35.3832 42.1666 35.3832ZM32.8166 24.3832C32.8166 24.3832 32.7554 24.3832 32.6332 24.3832C32.511 24.3832 32.3888 24.2916 32.2666 24.1082C32.1443 23.9249 32.0832 23.7721 32.0832 23.6499C32.4499 17.7832 33.9166 13.3221 36.4832 10.2666C37.9499 8.55546 39.7832 7.33324 41.9832 6.5999C42.2277 6.47768 42.4416 6.47768 42.6249 6.5999C42.8082 6.72212 42.9304 6.8749 42.9916 7.05824C43.0527 7.24157 43.0221 7.4249 42.8999 7.60823C42.7777 7.79157 42.6554 7.94435 42.5332 8.06657C40.5777 8.67768 38.9277 9.77768 37.5832 11.3666C35.261 14.0555 33.9166 18.1499 33.5499 23.6499C33.5499 23.8943 33.4582 24.0777 33.2749 24.1999C33.0916 24.3221 32.9388 24.3832 32.8166 24.3832ZM29.1499 19.6166C28.0499 19.6166 27.011 19.4332 26.0332 19.0666C24.6888 18.5777 23.5277 17.8138 22.5499 16.7749C21.5721 15.736 20.8999 14.5443 20.5332 13.1999C20.2888 12.8332 20.3499 12.5277 20.7166 12.2832C21.9388 11.5499 23.2527 11.1221 24.6582 10.9999C26.0638 10.8777 27.4388 11.061 28.7832 11.5499C30.1277 12.0388 31.2888 12.8027 32.2666 13.8416C33.2443 14.8805 33.9166 16.0721 34.2832 17.4166C34.4054 17.9055 34.2832 18.211 33.9166 18.3332C32.4499 19.1888 30.861 19.6166 29.1499 19.6166ZM21.9999 13.1999C22.8554 15.3999 24.3527 16.8971 26.4916 17.6916C28.6304 18.486 30.6777 18.3943 32.6332 17.4166C31.8999 15.2166 30.4638 13.7193 28.3249 12.9249C26.186 12.1305 24.0777 12.2221 21.9999 13.1999ZM40.8832 16.3166C39.661 16.3166 38.561 16.0721 37.5832 15.5832C36.6054 15.0943 35.7499 14.4221 35.0166 13.5666C34.7721 13.1999 34.7721 12.8943 35.0166 12.6499C35.7499 11.6721 36.6054 10.9388 37.5832 10.4499C38.561 9.96101 39.661 9.71657 40.8832 9.71657C41.9832 9.71657 43.0527 9.96101 44.0916 10.4499C45.1304 10.9388 45.9554 11.6721 46.5666 12.6499C46.9332 12.8943 46.9332 13.1999 46.5666 13.5666C45.9554 14.4221 45.1304 15.0943 44.0916 15.5832C43.0527 16.0721 41.9832 16.3166 40.8832 16.3166ZM36.6666 13.0166C37.7666 14.2388 39.1721 14.8499 40.8832 14.8499C42.4721 14.8499 43.8777 14.2388 45.0999 13.0166C43.8777 11.7943 42.4721 11.1832 40.8832 11.1832C39.1721 11.1832 37.7666 11.7943 36.6666 13.0166Z" fill="black"/>
</svg>
