<svg width="20" height="20" viewBox="0 0 20 20" fill="none" xmlns="http://www.w3.org/2000/svg">
<path d="M15.8 12.4C15.4 11.9556 14.9334 11.7333 14.4 11.7333C13.8667 11.7333 13.3778 11.9556 12.9334 12.4L11.6 13.7333L10.8667 13.3333C9.62224 12.5333 8.46669 11.4667 7.40002 10.1333C6.86669 9.51111 6.48891 8.91111 6.26669 8.33333L7.60002 7.06667C8.04446 6.62222 8.26669 6.13333 8.26669 5.6C8.26669 5.06667 8.04446 4.57778 7.60002 4.13333L5.26669 1.8C4.82224 1.35555 4.34446 1.13333 3.83335 1.13333C3.32224 1.13333 2.84446 1.35555 2.40002 1.8L0.933352 3.26667C0.400018 3.8 0.088907 4.44444 1.81259e-05 5.2C-0.0444263 6.13333 0.155574 7.17778 0.600018 8.33333C1.26668 10.1556 2.33335 11.9556 3.80002 13.7333C5.66669 15.9556 7.86669 17.6667 10.4 18.8667C11.8222 19.5333 13.0667 19.9111 14.1334 20H14.4C15.3778 20 16.1778 19.6444 16.8 18.9333H16.8667C17 18.7556 17.2222 18.5111 17.5334 18.2L18.1334 17.6C18.5778 17.1556 18.8 16.6667 18.8 16.1333C18.8 15.6 18.5778 15.1333 18.1334 14.7333L15.8 12.4ZM17.3334 16.8667L16.8 17.3333C16.4445 17.6889 16.1778 17.9778 16 18.2C15.5556 18.6444 15.0222 18.8667 14.4 18.8667H14.2C13.2667 18.8222 12.1778 18.4889 10.9334 17.8667C8.53335 16.7111 6.44446 15.0889 4.66669 13C3.28891 11.3111 2.28891 9.62222 1.66668 7.93333C1.26668 6.91111 1.11113 6.02222 1.20002 5.26667C1.24446 4.77778 1.42224 4.37778 1.73335 4.06667L3.20002 2.6C3.42224 2.37778 3.63335 2.26667 3.83335 2.26667C4.03335 2.26667 4.24446 2.37778 4.46669 2.6L6.80002 4.93333C7.20002 5.37778 7.20002 5.8 6.80002 6.2L6.40002 6.6C6.00002 7.04444 5.64446 7.37778 5.33335 7.6V7.66667C5.06669 7.93333 5.00002 8.24444 5.13335 8.6V8.66667C5.40002 9.33333 5.84446 10.0667 6.46669 10.8667C7.62224 12.2889 8.88891 13.4222 10.2667 14.2667L11.2 14.8C11.3778 14.8889 11.5556 14.9333 11.7334 14.9333C11.9111 14.9333 12.0889 14.8222 12.2667 14.6L13.7334 13.2C13.9556 12.9778 14.1667 12.8667 14.3667 12.8667C14.5667 12.8667 14.7778 12.9778 15 13.2L17.3334 15.5333C17.7334 15.9333 17.7334 16.3778 17.3334 16.8667ZM10.8 4.73333C11.9111 4.95555 12.8778 5.46667 13.7 6.26667C14.5222 7.06667 15.0222 8.04444 15.2 9.2C15.2445 9.33333 15.3222 9.44444 15.4334 9.53333C15.5445 9.62222 15.6667 9.66667 15.8 9.66667H15.8667C16.0445 9.62222 16.1778 9.53333 16.2667 9.4C16.3556 9.26667 16.3778 9.13333 16.3334 9C16.1111 7.62222 15.5111 6.44444 14.5334 5.46667C13.5556 4.48889 12.3778 3.88889 11 3.66667C10.8667 3.62222 10.7334 3.64444 10.6 3.73333C10.4667 3.82222 10.3889 3.94444 10.3667 4.1C10.3445 4.25556 10.3778 4.4 10.4667 4.53333C10.5556 4.66667 10.6667 4.73333 10.8 4.73333ZM20 8.8C19.6 6.57778 18.5889 4.65555 16.9667 3.03333C15.3445 1.41111 13.4 0.4 11.1334 -1.90735e-06C11 -1.90735e-06 10.8667 0.0444431 10.7334 0.133333C10.6 0.222221 10.5222 0.344444 10.5 0.499998C10.4778 0.655554 10.5111 0.788887 10.6 0.9C10.6889 1.01111 10.8222 1.08889 11 1.13333C13 1.48889 14.7222 2.38889 16.1667 3.83333C17.6111 5.27778 18.5111 7 18.8667 9C18.8667 9.13333 18.9222 9.24444 19.0334 9.33333C19.1445 9.42222 19.2667 9.46667 19.4 9.46667H19.5334C19.6667 9.46667 19.7778 9.4 19.8667 9.26667C19.9556 9.13333 20 8.97778 20 8.8Z" fill="#404A3D"/>
</svg>
