<svg width="13" height="13" viewBox="0 0 13 13" fill="none" xmlns="http://www.w3.org/2000/svg">
<path d="M8.565 6.43512C8.565 5.84512 8.36 5.34012 7.95 4.92012C7.54 4.50012 7.035 4.29012 6.435 4.29012C5.835 4.29012 5.33 4.50012 4.92 4.92012C4.51 5.34012 4.3 5.84512 4.29 6.43512C4.28 7.02512 4.49 7.53012 4.92 7.95012C5.35 8.37012 5.855 8.58012 6.435 8.58012C7.015 8.58012 7.52 8.37012 7.95 7.95012C8.38 7.53012 8.585 7.02512 8.565 6.43512ZM9.72 6.43512C9.72 7.34512 9.4 8.12512 8.76 8.77512C8.12 9.42512 7.345 9.74512 6.435 9.73512C5.525 9.72512 4.745 9.40512 4.095 8.77512C3.445 8.14512 3.125 7.36512 3.135 6.43512C3.145 5.50512 3.465 4.72512 4.095 4.09512C4.725 3.46512 5.505 3.14512 6.435 3.13512C7.365 3.12512 8.14 3.44512 8.76 4.09512C9.38 4.74512 9.7 5.52512 9.72 6.43512ZM10.635 3.00012C10.635 3.21012 10.56 3.39012 10.41 3.54012C10.26 3.69012 10.075 3.76512 9.855 3.76512C9.635 3.76512 9.455 3.69012 9.315 3.54012C9.175 3.39012 9.1 3.21012 9.09 3.00012C9.08 2.79012 9.155 2.61012 9.315 2.46012C9.475 2.31012 9.655 2.23512 9.855 2.23512C10.055 2.23512 10.24 2.31012 10.41 2.46012C10.58 2.61012 10.655 2.79012 10.635 3.00012ZM6.435 1.15512C6.395 1.15512 6.18 1.15512 5.79 1.15512H4.905C4.705 1.15512 4.435 1.16512 4.095 1.18512C3.755 1.20512 3.47 1.23012 3.24 1.26012C3.01 1.29012 2.81 1.34512 2.64 1.42512C2.36 1.53512 2.115 1.69512 1.905 1.90512C1.695 2.11512 1.53 2.36012 1.41 2.64012C1.35 2.80012 1.3 3.00012 1.26 3.24012C1.22 3.48012 1.19 3.77012 1.17 4.11012C1.15 4.45012 1.145 4.71512 1.155 4.90512C1.165 5.09512 1.165 5.39012 1.155 5.79012C1.145 6.19012 1.145 6.40512 1.155 6.43512C1.165 6.46512 1.165 6.68012 1.155 7.08012C1.145 7.48012 1.145 7.77512 1.155 7.96512C1.165 8.15512 1.17 8.42012 1.17 8.76012C1.17 9.10012 1.2 9.39012 1.26 9.63012L1.41 10.2301C1.53 10.5101 1.695 10.7551 1.905 10.9651C2.115 11.1751 2.36 11.3351 2.64 11.4451C2.8 11.5051 3 11.5601 3.24 11.6101C3.48 11.6601 3.765 11.6851 4.095 11.6851C4.425 11.6851 4.695 11.6951 4.905 11.7151C5.115 11.7351 5.41 11.7351 5.79 11.7151C6.17 11.6951 6.385 11.6951 6.435 11.7151C6.485 11.7351 6.695 11.7351 7.065 11.7151C7.435 11.6951 7.73 11.6951 7.95 11.7151C8.17 11.7351 8.44 11.7251 8.76 11.6851C9.08 11.6451 9.37 11.6201 9.63 11.6101C9.89 11.6001 10.085 11.5451 10.215 11.4451C10.495 11.3351 10.745 11.1751 10.965 10.9651C11.185 10.7551 11.345 10.5101 11.445 10.2301C11.505 10.0701 11.555 9.87012 11.595 9.63012C11.635 9.39012 11.665 9.10012 11.685 8.76012C11.705 8.42012 11.71 8.15512 11.7 7.96512C11.69 7.77512 11.69 7.48012 11.7 7.08012C11.71 6.68012 11.71 6.46512 11.7 6.43512C11.69 6.40512 11.69 6.19012 11.7 5.79012C11.71 5.39012 11.71 5.09512 11.7 4.90512C11.69 4.71512 11.685 4.45012 11.685 4.11012C11.685 3.77012 11.655 3.48012 11.595 3.24012L11.445 2.64012C11.335 2.36012 11.175 2.11512 10.965 1.90512C10.755 1.69512 10.505 1.53512 10.215 1.42512C10.055 1.36512 9.86 1.31012 9.63 1.26012C9.4 1.21012 9.11 1.18512 8.76 1.18512C8.41 1.18512 8.14 1.17512 7.95 1.15512C7.76 1.13512 7.465 1.13512 7.065 1.15512C6.665 1.17512 6.455 1.17512 6.435 1.15512ZM12.855 6.43512C12.855 7.71512 12.84 8.60012 12.81 9.09012C12.76 10.2501 12.415 11.1501 11.775 11.7901C11.135 12.4301 10.24 12.7751 9.09 12.8251C8.59 12.8551 7.705 12.8701 6.435 12.8701C5.165 12.8701 4.28 12.8551 3.78 12.8251C2.62 12.7651 1.72 12.4201 1.08 11.7901C0.44 11.1601 0.095 10.2601 0.045 9.09012C0.015 8.60012 0 7.71512 0 6.43512C0 5.15512 0.015 4.27012 0.045 3.78012C0.095 2.62012 0.44 1.72012 1.08 1.08012C1.72 0.440118 2.62 0.0951176 3.78 0.0451174C4.27 0.0151176 5.155 0.000117302 6.435 0.000117302C7.715 0.000117302 8.6 0.0151176 9.09 0.0451174C10.25 0.105118 11.145 0.450117 11.775 1.08012C12.405 1.71012 12.75 2.61012 12.81 3.78012C12.84 4.27012 12.855 5.15512 12.855 6.43512Z" fill="#3D550C"/>
</svg>
