<svg width="20" height="16" viewBox="0 0 20 16" fill="none" xmlns="http://www.w3.org/2000/svg">
<path d="M18.2667 0.00019455H1.73333C1.24444 0.00019455 0.833333 0.166862 0.5 0.500195C0.166667 0.833528 0 1.24464 0 1.73353V13.4669C0 13.9558 0.166667 14.3669 0.5 14.7002C0.833333 15.0335 1.24444 15.2002 1.73333 15.2002H18.2667C18.7556 15.2002 19.1667 15.0335 19.5 14.7002C19.8333 14.3669 20 13.9558 20 13.4669V1.73353C20 1.24464 19.8333 0.833528 19.5 0.500195C19.1667 0.166862 18.7556 0.00019455 18.2667 0.00019455ZM18 1.13353L10.0667 9.13353L2 1.13353H18ZM1.2 13.2002V2.00019L6.8 7.60019L1.2 13.2002ZM2 14.0669L7.66667 8.4002L9.6 10.3335C9.73333 10.4669 9.87778 10.5335 10.0333 10.5335C10.1889 10.5335 10.3333 10.4669 10.4667 10.3335L12.4 8.4002L18 14.0669H2ZM18.8 13.2002L13.2 7.60019L18.8 2.00019V13.2002Z" fill="#3D4A48"/>
</svg>
