<svg width="16" height="16" viewBox="0 0 16 16" fill="none" xmlns="http://www.w3.org/2000/svg">
<g clip-path="url(#clip0_33_954)">
<path d="M0.912 0.527999L0.416 1.04L1.072 1.6C2.14933 2.496 3.376 3.17867 4.752 3.648C5.27467 3.82933 5.728 3.94667 6.112 4C6.528 4.064 7.13067 4.10133 7.92 4.112C8.47467 4.112 8.99733 4.10133 9.488 4.08C10 4.05867 10.3467 4.02667 10.528 3.984C10.6667 3.952 10.7467 3.95733 10.768 4C10.7893 4.04267 10.728 4.15467 10.584 4.336C10.44 4.51733 10.1813 4.81067 9.808 5.216C9.44533 5.58933 8.912 6.13333 8.208 6.848L5.6 9.472L0 15.072L0.448 15.552L0.928 16L6.528 10.4L9.152 7.792C9.86667 7.088 10.4107 6.55467 10.784 6.192C11.1893 5.81867 11.4827 5.56 11.664 5.416C11.8453 5.272 11.9573 5.21067 12 5.232C12.0427 5.25333 12.048 5.33333 12.016 5.472C11.9733 5.65333 11.9413 6 11.92 6.512C11.8987 7.00267 11.888 7.52533 11.888 8.08C11.8987 8.86933 11.936 9.472 12 9.888C12.0533 10.272 12.1707 10.7253 12.352 11.248C12.8213 12.624 13.504 13.8507 14.4 14.928L14.96 15.584L15.472 15.088L16 14.592L15.6 14.16C15.3867 13.9573 15.0453 13.4773 14.576 12.72C13.8933 11.5893 13.4667 10.3733 13.296 9.072C13.1253 7.78133 13.2133 6.504 13.56 5.24C13.9067 3.976 14.496 2.816 15.328 1.76L15.984 0.927999L15.552 0.463999L15.104 0.0159988L14.672 0.351999C14.1813 0.725332 13.6533 1.08533 13.088 1.432C12.5227 1.77867 12.0533 2.02667 11.68 2.176C11.104 2.4 10.3707 2.57333 9.48 2.696C8.58933 2.81867 7.856 2.84267 7.28 2.768C6.288 2.65067 5.28267 2.37067 4.264 1.928C3.24533 1.48533 2.43733 0.975999 1.84 0.4L1.408 0L0.912 0.527999Z" fill="white"/>
</g>
<defs>
<clipPath id="clip0_33_954">
<rect width="16" height="16" fill="white" transform="matrix(1 0 0 -1 0 16)"/>
</clipPath>
</defs>
</svg>
