<svg width="20" height="22" viewBox="0 0 20 22" fill="none" xmlns="http://www.w3.org/2000/svg">
<path d="M11.5352 1.58872L13.2662 5.49259C13.5022 6.03602 14.1317 6.55728 14.6627 6.65709L17.8001 7.24489C19.8064 7.62197 20.2784 9.26337 18.8327 10.8826L16.3937 13.633C15.9806 14.0988 15.7544 14.9972 15.8823 15.6404L16.5805 19.0452C17.1313 21.7402 15.8626 22.7827 13.7481 21.3742L10.8075 19.4112C10.2764 19.0563 9.40108 19.0563 8.86017 19.4112L5.91954 21.3742C3.81488 22.7827 2.53635 21.7291 3.0871 19.0452L3.78537 15.6404C3.91323 14.9972 3.68703 14.0988 3.27396 13.633L0.834914 10.8826C-0.600977 9.26337 -0.138738 7.62197 1.86757 7.24489L5.0049 6.65709C5.52614 6.55728 6.15558 6.03602 6.39161 5.49259L8.12255 1.58872C9.0667 -0.529573 10.6009 -0.529573 11.5352 1.58872Z" fill="#F8B00A"/>
</svg>
